<svg width="407" height="222" viewBox="0 0 407 222" fill="none" xmlns="http://www.w3.org/2000/svg">
<ellipse cx="203.5" cy="111" rx="203.5" ry="111" fill="#E20713"/>
<path d="M172.05 33.0569C151.7 41.3819 88.0523 58.2308 26.825 57.35C54.575 30.525 98.05 10.175 172.05 1.60687C225.943 -2.40785 276.575 6.47499 301.55 14.8C248.343 11.9891 192.4 24.7318 172.05 33.0569Z" fill="#FFD503" stroke="#FFD503"/>
<path d="M105.908 141.803C101.924 144.674 96.7676 146.109 90.4395 146.109C87.334 146.109 84.4629 145.436 81.8262 144.088C79.1895 142.74 77.0801 140.807 75.498 138.287C73.9746 135.709 73.2129 132.691 73.2129 129.234C73.2129 124.723 74.6484 120.475 77.5195 116.49C80.3906 112.506 84.8438 109.166 90.8789 106.471C96.9727 103.717 104.59 102.018 113.73 101.373V96.5391C113.73 89.7422 112.529 84.1465 110.127 79.752C107.725 75.2988 103.74 73.0723 98.1738 73.0723C95.4199 73.0723 93.4277 73.6289 92.1973 74.7422C90.9668 75.8555 90.1465 77.5254 89.7363 79.752C89.3848 81.9785 88.9453 86.0508 88.418 91.9688C84.9609 91.9688 82.0605 91.4121 79.7168 90.2988C77.373 89.1855 76.2012 86.7246 76.2012 82.916C76.2012 79.8691 77.8125 76.9688 81.0352 74.2148C84.2578 71.4023 88.2422 69.1465 92.9883 67.4473C97.7344 65.748 102.158 64.8984 106.26 64.8984C113.994 64.8984 119.531 67.0664 122.871 71.4023C126.27 75.6797 127.969 82.5059 127.969 91.8809V123.785C127.969 126.598 128.232 128.766 128.76 130.289C129.287 131.754 130.225 132.896 131.572 133.717C132.979 134.479 135.059 135.094 137.812 135.562L142.207 136.354L141.064 143.912C140.186 144.029 138.838 144.264 137.021 144.615C134.209 145.26 131.572 145.582 129.111 145.582C125.947 145.582 123.34 144.996 121.289 143.824C119.238 142.652 117.744 141.188 116.807 139.43C115.928 137.613 115.488 135.738 115.488 133.805V132.486H114.521C112.822 135.768 109.951 138.873 105.908 141.803ZM113.73 127.477V106.383C104.59 108.199 98.1152 110.66 94.3066 113.766C90.498 116.812 88.5938 120.592 88.5938 125.104C88.5938 126.627 88.9746 128.18 89.7363 129.762C90.498 131.344 91.6113 132.662 93.0762 133.717C94.5996 134.771 96.3867 135.299 98.4375 135.299C101.25 135.299 104.062 134.479 106.875 132.838C109.688 131.197 111.973 129.41 113.73 127.477ZM185.186 169.664L184.131 176.695H143.174L143.701 169.84L157.148 166.5V80.543L143.613 76.5L144.668 69.7324L170.244 66.4805L172.09 68.1504L170.859 79.4883H171.475C174.287 75.5625 177.744 72.1641 181.846 69.293C185.947 66.4219 190.576 64.9863 195.732 64.9863C200.947 64.9863 205.547 66.334 209.531 69.0293C213.516 71.7246 216.65 75.9141 218.936 81.5977C221.221 87.2227 222.363 94.3418 222.363 102.955C222.363 111.158 220.664 118.512 217.266 125.016C213.926 131.52 209.268 136.588 203.291 140.221C197.373 143.854 190.693 145.67 183.252 145.67C180.674 145.67 177.92 145.406 174.99 144.879L174.463 134.244C176.455 135.006 178.33 135.533 180.088 135.826C181.846 136.061 184.453 136.178 187.91 136.178C193.828 136.178 198.369 133.658 201.533 128.619C204.697 123.58 206.279 116.812 206.279 108.316C206.279 97.8281 204.873 89.918 202.061 84.5859C199.248 79.1953 195.059 76.5 189.492 76.5C186.094 76.5 182.812 77.3789 179.648 79.1367C176.543 80.8945 173.818 83.0039 171.475 85.4648V166.588L185.186 169.664ZM256.553 48.5508C254.912 49.4883 253.154 49.957 251.279 49.957C249.404 49.957 247.646 49.459 246.006 48.4629C244.424 47.4668 243.164 46.1484 242.227 44.5078C241.289 42.8086 240.82 40.9922 240.82 39.0586C240.82 36.3047 241.846 33.9902 243.896 32.1152C246.006 30.1816 248.467 29.2148 251.279 29.2148C254.209 29.2148 256.729 30.1816 258.838 32.1152C260.947 34.0488 262.002 36.4219 262.002 39.2344C262.002 41.168 261.504 42.9551 260.508 44.5957C259.57 46.2363 258.252 47.5547 256.553 48.5508ZM272.549 144H230.361L231.416 137.057L244.688 133.805V79.752L231.416 74.918L232.559 68.2383L257.256 66.2168L259.453 68.4141V133.805L273.516 136.969L272.549 144ZM317.461 144.088C313.301 146.021 308.965 146.988 304.453 146.988C299.414 146.988 294.961 146.344 291.094 145.055C287.227 143.824 284.238 142.154 282.129 140.045C280.02 137.936 278.965 135.709 278.965 133.365C278.965 130.084 279.932 127.271 281.865 124.928C283.799 122.584 286.406 121.295 289.688 121.061C291.621 126.803 294.111 131.139 297.158 134.068C300.205 136.939 303.545 138.375 307.178 138.375C310.576 138.375 313.359 137.672 315.527 136.266C317.695 134.801 318.779 132.545 318.779 129.498C318.779 127.623 318.135 125.895 316.846 124.312C315.557 122.672 313.916 121.207 311.924 119.918C309.99 118.57 307.266 116.9 303.75 114.908C298.945 112.154 295.02 109.693 291.973 107.525C288.984 105.299 286.406 102.574 284.238 99.3516C282.129 96.1289 281.074 92.4082 281.074 88.1895C281.074 84.5566 282.07 80.9531 284.062 77.3789C286.055 73.8047 289.014 70.8457 292.939 68.502C296.924 66.0996 301.699 64.8984 307.266 64.8984C311.484 64.8984 315.234 65.6016 318.516 67.0078C321.797 68.3555 324.316 70.2305 326.074 72.6328C327.891 74.9766 328.799 77.6133 328.799 80.543C328.799 83.8828 327.686 86.6074 325.459 88.7168C323.291 90.8262 320.303 91.998 316.494 92.2324C315.439 85.5527 313.74 80.5723 311.396 77.291C309.053 73.9512 306.182 72.2812 302.783 72.2812C299.795 72.2812 297.393 73.3066 295.576 75.3574C293.818 77.4082 292.939 79.8984 292.939 82.8281C292.939 85.1719 293.672 87.3105 295.137 89.2441C296.602 91.1191 298.418 92.7891 300.586 94.2539C302.754 95.7188 305.771 97.5352 309.639 99.7031C314.326 102.281 318.105 104.596 320.977 106.646C323.906 108.697 326.396 111.246 328.447 114.293C330.498 117.281 331.523 120.738 331.523 124.664C331.523 128.824 330.234 132.633 327.656 136.09C325.078 139.488 321.68 142.154 317.461 144.088Z" fill="white"/>
</svg>
